<?xml version="1.0" encoding="utf-8"?>
<!-- Generator: Adobe Illustrator 24.3.0, SVG Export Plug-In . SVG Version: 6.00 Build 0)  -->
<svg version="1.1" id="Layer_1" xmlns="http://www.w3.org/2000/svg" xmlns:xlink="http://www.w3.org/1999/xlink" x="0px" y="0px"
	 viewBox="0 0 16 16" style="enable-background:new 0 0 16 16;" xml:space="preserve">
<g>
	<path d="M11.3,7.2L9.6,6.1c0.3-0.5,0.5-1,0.5-1.5c0-1.1-0.9-2.1-2.1-2.1c-1.1,0-2,0.9-2.1,2l-2,0c0-1.1,0.4-2.1,1.2-2.8
		C5.9,0.9,7,0.5,8,0.5c2.3,0,4.1,1.8,4.1,4.1C12.1,5.4,11.9,6.3,11.3,7.2z"/>
	<path d="M11.9,15.5c-0.7,0-1.4-0.2-2-0.5c-0.7-0.4-1.3-1.1-1.8-2l1.8-1c0.3,0.6,0.7,1,1,1.2c1,0.6,2.2,0.2,2.8-0.8
		c0.6-1,0.2-2.2-0.7-2.8l1-1.7c0.9,0.6,1.6,1.4,1.9,2.5c0.3,1,0.1,2.1-0.4,3.1C14.7,14.8,13.3,15.5,11.9,15.5z"/>
	<path d="M4.1,15.4c-0.4,0-0.7,0-1.1-0.1c-1-0.3-1.9-1-2.5-1.9c-0.5-0.9-0.7-2-0.4-3.1s1-1.9,1.9-2.5c0.7-0.4,1.6-0.6,2.6-0.6
		l-0.1,2C4,9.2,3.5,9.4,3.1,9.6c-0.5,0.3-0.8,0.7-1,1.2C2,11.4,2,11.9,2.3,12.4c0.6,1,1.8,1.3,2.8,0.8l1,1.8
		C5.5,15.3,4.8,15.4,4.1,15.4z"/>
	<path d="M8,9.1l5.2-1.6c0,0-1.7-0.8-2.6-1.3C9.8,5.8,8,4.6,8,4.6L8,9.1z"/>
	<path d="M8,9.1l-1.2,5.3c0,0,1.5-1.1,2.4-1.6c0.8-0.5,2.8-1.4,2.8-1.4L8,9.1z"/>
	<path d="M8,9.1L4,5.4c0,0,0.2,1.8,0.2,2.9c0,1-0.2,3.1-0.2,3.1L8,9.1z"/>
</g>
</svg>
