<?xml version="1.0" encoding="utf-8"?>
<!-- Generator: Adobe Illustrator 24.3.0, SVG Export Plug-In . SVG Version: 6.00 Build 0)  -->
<svg version="1.1" xmlns="http://www.w3.org/2000/svg" xmlns:xlink="http://www.w3.org/1999/xlink" x="0px" y="0px"
	 viewBox="0 0 5589.9 1133.9" style="enable-background:new 0 0 5589.9 1133.9;" xml:space="preserve">
<g id="PROCESS">
</g>
<g id="FINAL">
	<g id="LOGO_WHITE_30_">
		<g>
			<path style="fill:#F9FAEA;" d="M928.7,519.1l-106.5-65.6c20.4-33.1,30.8-64,30.8-91.8c0-69.6-56.6-126.2-126.2-126.2
				c-68.5,0-125.1,55.7-126.2,124.1l-125.1-2.1c1.1-66.2,27.7-128.4,75-174.9c47.3-46.6,109.9-72.2,176.3-72.2
				c138.6,0,251.3,112.7,251.3,251.3C978.1,413,961.4,466,928.7,519.1z"/>
			<path style="fill:#F9FAEA;" d="M964.8,1030.6c-42.6,0-85.7-10.8-125.2-33.6c-44.4-25.7-82-66.5-111.7-121.5l110.1-59.4
				c18.5,34.2,40.1,58.7,64.1,72.6c60.3,34.8,137.6,14.1,172.4-46.2c34.2-59.3,14.3-136.1-44.3-171.3l64.3-107.3
				c56.8,34.1,97.3,88.2,114,152.4c16.7,64.3,7.6,131.3-25.6,188.8C1136.3,985.5,1051.7,1030.6,964.8,1030.6z"/>
			<path style="fill:#F9FAEA;" d="M484.6,1028.4c-22.5,0-45.1-3-67.3-9.2c-64-17.7-117.5-59.1-150.7-116.6
				c-33.6-58.1-42.5-125.9-25.1-190.7c17.4-64.8,59-119,117.1-152.6c44.4-25.7,98.6-37.8,161-36l-3.6,125
				c-38.9-1.1-70.8,5.4-94.9,19.3c-29.2,16.9-50.1,44.1-58.8,76.6c-8.7,32.6-4.2,66.6,12.6,95.8c34.2,59.3,110.7,80.5,170.5,47.2
				l60.8,109.4C568.5,1017.7,526.8,1028.4,484.6,1028.4z"/>
			<path style="fill:#F9FAEA;" d="M725.4,639.4l320.8-97c0,0-103.1-47.9-158.2-78.1c-52.9-28.9-161.3-105.7-161.3-105.7L725.4,639.4
				z"/>
			<path style="fill:#F9FAEA;" d="M725.4,639.3L649,965.7c0,0,93-65.3,146.8-98c51.5-31.3,172.2-86.8,172.2-86.8L725.4,639.3z"/>
			<path style="fill:#F9FAEA;" d="M725.4,639.3L481,410c0,0,10,113.2,11.5,176.1c1.4,60.3-10.9,192.5-10.9,192.5L725.4,639.3z"/>
		</g>
	</g>
	<g>
		<g>
			<path style="fill:#F9FAEA;" d="M1549.1,575.3v453.1h-120.4V575.3H1549.1z"/>
			<path style="fill:#F9FAEA;" d="M1658.8,1028.4V575.3h143.7c97.2,158.8,151.7,253.8,177.1,307.8h1.5
				c-4.7-44.9-4.5-128.9-4.5-203.4V575.3h109.3v453.1h-135.5c-39.9-71.6-160.7-279.4-184.8-332.4h-1.5c3.8,48.1,4.2,124,4.2,205.7
				v126.7H1658.8z"/>
			<path style="fill:#F9FAEA;" d="M2195.7,575.3h202.5c147.9,0,232,95.2,232,219.5c0,139-97.3,233.6-235,233.6h-199.4V575.3z
				 M2316,936.7h67.9c80.1,0,120.1-50.4,120.1-139.9c0-74.9-34.9-129.4-119.4-130.2H2316V936.7z"/>
			<path style="fill:#F9FAEA;" d="M3167.8,800.5c0,126.1-80.9,236.6-242.8,236.6c-152.7,0-235.1-104.6-235.1-235.7
				c0-127.4,88.3-234.8,241.3-234.8C3082.7,566.6,3167.8,670.5,3167.8,800.5z M2815.8,799.7c0,83.6,36.7,145.2,115.1,145.2
				c82.9,0,111.1-71.4,111.1-143.1c0-79.7-32.2-143.2-114.6-143.2C2848.5,658.6,2815.8,721.9,2815.8,799.7z"/>
			<path style="fill:#F9FAEA;" d="M3252.6,1028.4V575.3h143.7c97.2,158.8,151.7,253.8,177.1,307.8h1.5
				c-4.7-44.9-4.5-128.9-4.5-203.4V575.3h109.3v453.1h-135.5c-39.9-71.6-160.7-279.4-184.8-332.4h-1.5c3.8,48.1,4.2,124,4.2,205.7
				v126.7H3252.6z"/>
			<path style="fill:#F9FAEA;" d="M4141.9,841.1h-233.8v93.1h260l-13.8,94.2h-364.8V575.3h364.1v94.2h-245.5v77.4h233.8V841.1z"/>
			<path style="fill:#F9FAEA;" d="M4322,892.5c10.8,37.9,40.1,58.8,101,58.8c56.7,0,75.2-17.6,75.2-45c0-30-19.8-44.4-103.2-60.4
				c-149.3-28.9-176.9-80.1-176.9-140.6c0-87.5,77.3-138.3,189.5-138.3c143.6,0,191.9,73.2,197.7,134.7h-119.6
				c-4.9-22.2-18.5-49.7-80.8-49.7c-42.6,0-64.6,14.5-64.6,40.8c0,25.1,18.3,36.1,94.2,51.4c157.8,31.5,186.7,82.7,186.7,148.8
				c0,82.8-64.7,143.8-207.6,143.8c-135,0-199.3-61.1-211.8-144.3H4322z"/>
			<path style="fill:#F9FAEA;" d="M4825.7,575.3v453.1h-120.4V575.3H4825.7z"/>
			<path style="fill:#F9FAEA;" d="M5034.7,934.3l-32.8,94h-121l167.1-453.1h154.5l175.6,453.1h-128.5l-35.1-94H5034.7z
				 M5185.6,840.1c-33.6-91.9-52.6-147.2-63.6-185.8h-0.9c-10.5,39.8-32.1,107.2-59.2,185.8H5185.6z"/>
		</g>
	</g>
	<g>
		<g>
			<path style="fill:#F9FAEA;" d="M1718.1,310.5c0-64.6,0.7-130.3,2.2-166.8h-1.7c-15.3,57.5-71.5,209.1-110.4,315.5h-39.9
				c-29.4-87-87.4-255.2-103.4-316.2h-1.5c2.7,40.1,3.8,117.5,3.8,177.1v139.1h-41.5V112h65.7c39,107.1,87.4,248,99.4,292.9h0.8
				c7.8-32.8,65.2-187.7,105.6-292.9h63.9v347.2h-43V310.5z"/>
			<path style="fill:#F9FAEA;" d="M2061.7,296h-168v125.6h184.6l-5.8,37.7h-221.9V112h219.1v37.7h-176.1v108.5h168V296z"/>
			<path style="fill:#F9FAEA;" d="M2433.1,310.5c0-64.6,0.7-130.3,2.2-166.8h-1.7c-15.3,57.5-71.5,209.1-110.4,315.5h-39.9
				c-29.4-87-87.4-255.2-103.4-316.2h-1.5c2.7,40.1,3.8,117.5,3.8,177.1v139.1h-41.5V112h65.7c39,107.1,87.4,248,99.4,292.9h0.8
				c7.8-32.8,65.2-187.7,105.6-292.9h63.9v347.2h-43V310.5z"/>
			<path style="fill:#F9FAEA;" d="M2565.6,112h128.9c69.7,0,105.4,36.4,105.4,86.3c0,42.1-24.9,66.4-50,74.7
				c24.2,7.9,61.4,31.7,61.4,84.3c0,65.9-49.5,101.9-115.9,101.9h-129.8V112z M2685.4,256.4c50.7,0,70.4-20.1,70.4-54.4
				c0-31.3-21.7-53.8-64.2-53.8h-82.8v108.2H2685.4z M2608.7,423.2h82c43.9,0,75.4-20.8,75.4-65.6c0-39.3-25.2-65-83.1-65h-74.4
				V423.2z"/>
			<path style="fill:#F9FAEA;" d="M3091.2,296h-168v125.6h184.6l-5.8,37.7h-221.9V112h219.1v37.7h-176.1v108.5h168V296z"/>
			<path style="fill:#F9FAEA;" d="M3213.7,304.2v155.1h-43.6V112h131.1c68.2,0,107.6,36.1,107.6,91.7c0,46.6-27.2,72.5-58.9,81.5
				c31.1,8.8,53,32.3,53,88.7v12.2c0,26.4-0.6,56.8,4.7,73.1h-43c-5.8-14.6-5.8-43.4-5.8-76.9v-7.3c0-49.9-15.3-70.9-76.4-70.9
				H3213.7z M3213.7,267.3h72.6c51.3,0,77.2-18,77.2-60.4c0-37.3-24.5-58-70.4-58h-79.4V267.3z"/>
			<path style="fill:#F9FAEA;" d="M3502.4,362.4c8.7,43,38,65.6,86,65.6c50.9,0,74.4-24.5,74.4-59.5c0-36.2-17.4-55-84.9-72.6
				c-78.6-20.5-107-47.1-107-96.2c0-52.2,38.7-92.4,112.2-92.4c79.9,0,113.1,46.6,117.5,93h-44.4c-6-32.7-26-57.3-74.6-57.3
				c-42.3,0-65.2,19.6-65.2,52.7c0,32.9,19.3,46,78.8,61.4c94.9,24.7,113.2,61.5,113.2,106.9c0,56.3-40.9,99.6-122.6,99.6
				c-82.7,0-121.4-45.2-127.9-101H3502.4z"/>
			<path style="fill:#F9FAEA;" d="M3819.9,112v347.2h-43.9V112H3819.9z"/>
			<path style="fill:#F9FAEA;" d="M3909.6,112h43.9v145.7h177.1V112h44v347.2h-44V295.5h-177.1v163.7h-43.9V112z"/>
			<path style="fill:#F9FAEA;" d="M4264.1,112h43.5v172.3c29.8-31.8,113.4-116.9,165.9-172.3h54.3l-144,145.7l151.5,201.5H4482
				l-129-172.8l-45.4,42.7v130.1h-43.5V112z"/>
			<path style="fill:#F9FAEA;" d="M4620.1,353.6l-36.7,105.6h-43.8c7.5-22.4,112.3-321.8,120.8-347.2h54.4l125.9,347.2h-46.9
				l-37.8-105.6H4620.1z M4744.7,315.8c-32.3-91.5-50.8-141-58-167.6h-0.6c-8.9,32.8-28.6,90-54.8,167.6H4744.7z"/>
			<path style="fill:#F9FAEA;" d="M4894.6,459.2V112h58.4c76.9,131.1,159.4,263.1,175.1,294.1h0.7c-3.3-45.4-3.2-100.3-3.2-156.9
				V112h41.7v347.2h-54.6c-77.2-133.2-160.4-270.8-178.1-302.4h-0.6c2.5,41.4,2.3,99.7,2.3,162.3v140.1H4894.6z"/>
		</g>
	</g>
</g>
</svg>
